<svg width="232" height="232" viewBox="0 0 232 232" fill="none" xmlns="http://www.w3.org/2000/svg">
<mask id="mask0_0_234" style="mask-type:alpha" maskUnits="userSpaceOnUse" x="0" y="0" width="232" height="232">
<rect width="232" height="232" rx="116" fill="white"/>
</mask>
<g mask="url(#mask0_0_234)">
<path d="M22 130.615V164.67C22 166.845 23.7636 168.609 25.9392 168.609H77.5753L99.4424 161.1L121.31 168.609H206.061C208.237 168.609 208.164 166.845 208.164 164.67V133.25C208.164 131.54 209.444 129.876 208.416 128.511L169.991 77.4825C168.502 75.5059 166.171 74.3434 163.697 74.3434L92.5154 71.7731L35.5727 74.3434L22 130.615Z" fill="#B8C9EA"/>
<path d="M35.5723 74.3431V70.0565C35.5723 64.3948 40.1622 59.805 45.8238 59.805H136.113C146.986 59.805 157.192 65.047 163.525 73.8848L163.854 74.3431H35.5723Z" fill="#D6E0F4"/>
<path d="M163.525 73.8848C157.192 65.047 146.986 59.805 136.113 59.805H120.915C131.788 59.805 141.994 65.047 148.327 73.8848L148.655 74.3431H163.854L163.525 73.8848Z" fill="#B8C9EA"/>
<path d="M125.315 45.1531C129.361 45.1531 132.641 48.4332 132.641 52.4792V59.8054H117.989V52.4792C117.989 48.4332 121.269 45.1531 125.315 45.1531Z" fill="#FF9F6B"/>
<path d="M23.3821 124.885H102.772L81.2424 87.2001H32.4714L23.3821 124.885Z" fill="#FF9F6B"/>
<path d="M177.308 87.2001H137.078C134.902 87.2001 133.138 88.9637 133.138 91.1393V108.771C133.138 110.946 134.902 112.71 137.078 112.71H196.517L177.308 87.2001Z" fill="#007DF2"/>
<path d="M77.5753 91.1393V168.609H121.309V91.1393C121.309 88.9637 119.546 87.2001 117.37 87.2001H81.5145C79.3389 87.2001 77.5753 88.9641 77.5753 91.1393H77.5753Z" fill="#D6E0F4"/>
<path d="M88.6049 123.966V102.169C88.6049 99.9937 90.3685 98.2301 92.544 98.2301H106.34C108.516 98.2301 110.279 99.9937 110.279 102.169V123.966C110.279 126.141 108.516 127.905 106.34 127.905H92.544C90.3685 127.905 88.6049 126.141 88.6049 123.966Z" fill="#007DF2"/>
<circle cx="49.5291" cy="162.229" r="17.7168" transform="rotate(-37.9705 49.5291 162.229)" fill="#007DF2"/>
<circle cx="49.5291" cy="162.229" r="6.35851" transform="rotate(-37.9705 49.5291 162.229)" fill="#D5D9F2"/>
<circle cx="159.375" cy="162.274" r="17.7168" transform="rotate(-37.9705 159.375 162.274)" fill="#007DF2"/>
<circle cx="159.375" cy="162.274" r="6.35851" transform="rotate(-37.9705 159.375 162.274)" fill="#D5D9F2"/>
<path d="M198.487 155.348H210V136.336H198.487C197.399 136.336 196.517 137.218 196.517 138.306V153.379C196.517 154.467 197.399 155.348 198.487 155.348Z" fill="#FF9F6B"/>
<path d="M59.5196 103.205H55.3454V99.0309C55.3454 97.4641 54.0753 96.194 52.5085 96.194C50.9413 96.194 49.6716 97.4641 49.6716 99.0309V103.205H45.4967C43.9295 103.205 42.6598 104.476 42.6598 106.042C42.6598 107.609 43.9299 108.879 45.4967 108.879H49.6712V113.054C49.6712 114.621 50.9413 115.891 52.5081 115.891C54.0753 115.891 55.345 114.621 55.345 113.054V108.88H59.5192C61.0864 108.88 62.3561 107.61 62.3561 106.043C62.3565 104.476 61.0867 103.205 59.5196 103.205Z" fill="#D6E0F4"/>
<path d="M143.566 125.923H139.422C137.855 125.923 136.585 124.653 136.585 123.086C136.585 121.519 137.855 120.249 139.422 120.249H143.566C145.133 120.249 146.403 121.519 146.403 123.086C146.403 124.653 145.133 125.923 143.566 125.923Z" fill="#8FACE0"/>
</g>
</svg>
