<svg width="84" height="89" viewBox="0 0 84 89" fill="none" xmlns="http://www.w3.org/2000/svg">
<circle cx="41.6489" cy="41.6489" r="41.6489" fill="#007FF4"/>
<path d="M39.9721 30.7012C38.6443 30.9513 37.711 31.9135 37.1722 33.5876C36.9028 34.4151 36.7681 35.2329 36.7681 36.0411C36.7681 36.1373 36.7681 36.2239 36.7681 36.3009C36.7874 36.3586 36.8066 36.5029 36.8258 36.7338H39.9721V43.0263H33.8239V37.2245C33.8239 34.3766 34.3916 32.1829 35.5269 30.6434C36.6623 29.104 38.144 28.2188 39.9721 27.9879V30.7012ZM49.6994 30.7012C48.6411 30.8743 47.8328 31.4709 47.2748 32.4907C46.736 33.5106 46.4666 34.6845 46.4666 36.0122C46.4666 36.1277 46.4666 36.2431 46.4666 36.3586C46.4858 36.4741 46.5147 36.5991 46.5532 36.7338H49.6994V43.0263H43.5224V37.2245C43.5224 34.9346 44.0035 32.8949 44.9656 31.1053C45.9278 29.2964 47.5057 28.2573 49.6994 27.9879V30.7012Z" fill="white"/>
</svg>
