<svg width="51" height="51" viewBox="0 0 51 51" fill="none" xmlns="http://www.w3.org/2000/svg">
<circle cx="25.5" cy="25.5" r="25.5" fill="#F7FBFF"/>
<g style="mix-blend-mode:luminosity">
<path d="M21.2188 26C21.2188 25.1082 21.4645 24.2728 21.8913 23.5575V20.5232H18.8571C17.6528 22.0872 17 23.9934 17 26C17 28.0067 17.6528 29.9128 18.8571 31.4768H21.8913V28.4426C21.4645 27.7272 21.2188 26.8918 21.2188 26Z" fill="#FBBD00"/>
<path d="M26 30.7812L23.8906 32.8905L26 34.9999C28.0067 34.9999 29.9128 34.3471 31.4768 33.1428V30.1118H28.4458C27.7242 30.5402 26.8853 30.7812 26 30.7812Z" fill="#0F9D58"/>
<path d="M21.8913 28.4426L18.8571 31.4769C19.0955 31.7865 19.3551 32.0831 19.636 32.3641C21.3359 34.0639 23.596 35.0001 26 35.0001V30.7813C24.2554 30.7813 22.7264 29.842 21.8913 28.4426Z" fill="#31AA52"/>
<path d="M35 26.0001C35 25.4525 34.9504 24.9039 34.8526 24.3696L34.7735 23.9373H26V28.156H30.2698C29.8552 28.9808 29.2176 29.6537 28.4457 30.112L31.4768 33.1431C31.7864 32.9046 32.083 32.645 32.3639 32.3641C34.0638 30.6642 35 28.4041 35 26.0001Z" fill="#3C79E6"/>
<path d="M29.3809 22.6191L29.7537 22.992L32.7369 20.0089L32.364 19.6361C30.6641 17.9362 28.404 17 26 17L23.8906 19.1094L26 21.2188C27.2771 21.2188 28.4778 21.7161 29.3809 22.6191Z" fill="#CF2D48"/>
<path d="M26 21.2188V17C23.596 17 21.3359 17.9362 19.636 19.636C19.3551 19.9169 19.0955 20.2135 18.857 20.5232L21.8913 23.5574C22.7264 22.1581 24.2554 21.2188 26 21.2188Z" fill="#EB4132"/>
</g>
</svg>
