<svg width="130" height="124" viewBox="0 0 130 124" fill="none" xmlns="http://www.w3.org/2000/svg">
<path d="M27.0558 40.1782C23.1505 40.1782 19.7553 42.4067 18.195 45.994C16.6445 49.5582 17.3235 53.5342 19.966 56.3697C20.0993 56.5127 20.2355 56.6537 20.3745 56.793C20.8628 57.2812 21.5025 57.5252 22.1423 57.5252C22.782 57.5252 23.422 57.2812 23.91 56.793C24.8863 55.8167 24.8863 54.2337 23.91 53.2572C23.8125 53.16 23.7173 53.0615 23.6238 52.961C22.34 51.5835 22.0245 49.7245 22.7795 47.9882C23.545 46.2285 25.1435 45.178 27.0553 45.178C28.436 45.178 29.5553 44.0587 29.5553 42.678C29.5558 41.2975 28.4365 40.1782 27.0558 40.1782Z" fill="#007EF3" stroke="#007EF3"/>
<path d="M80.212 45.1782C82.1237 45.1782 83.7222 46.2287 84.4877 47.9885C85.243 49.7247 84.9275 51.5837 83.6422 52.9625C83.5492 53.0622 83.4537 53.161 83.3565 53.2582C82.3807 54.235 82.3815 55.818 83.3582 56.7937C83.8465 57.2812 84.4857 57.525 85.125 57.525C85.7652 57.525 86.4055 57.2805 86.8937 56.7917C87.0327 56.6525 87.1692 56.5115 87.301 56.37C89.944 53.534 90.623 49.5582 89.0725 45.994C87.5122 42.4065 84.117 40.178 80.2117 40.178C78.831 40.178 77.7117 41.2972 77.7117 42.678C77.712 44.059 78.8312 45.1782 80.212 45.1782Z" fill="#007EF3" stroke="#007EF3"/>
<path d="M37.4243 34.6293C37.5875 34.6293 37.75 34.6265 37.9125 34.6208C41.2175 34.5045 44.025 32.516 45.2395 29.4313C46.4615 26.328 45.758 22.9375 43.4035 20.583C42.4273 19.6068 40.8443 19.6068 39.8678 20.583C38.8915 21.5593 38.8915 23.1423 39.8678 24.1188C40.8068 25.0575 41.0755 26.359 40.587 27.5995C40.106 28.8213 39.0403 29.578 37.737 29.6238C37.6333 29.6275 37.5288 29.6293 37.424 29.6293C36.0433 29.6293 34.924 30.7485 34.924 32.1293C34.9243 33.51 36.0435 34.6293 37.4243 34.6293Z" fill="#007EF3" stroke="#007EF3"/>
<path d="M69.3557 35.3318C69.5167 35.3373 69.6787 35.3403 69.841 35.3403H69.8432C71.223 35.3403 72.342 34.2225 72.3432 32.8425C72.3445 31.4618 71.2262 30.3415 69.8455 30.3403C69.74 30.3403 69.6347 30.3383 69.5307 30.3348C68.227 30.2888 67.1612 29.532 66.6802 28.3103C66.1917 27.0695 66.4607 25.7683 67.3995 24.8295C68.3757 23.8533 68.3757 22.2703 67.3995 21.2938C66.4232 20.3175 64.8402 20.3175 63.8637 21.2938C61.5092 23.6483 60.8057 27.0388 62.0277 30.142C63.2427 33.2268 66.0502 35.2153 69.3557 35.3318Z" fill="#007EF3" stroke="#007EF3"/>
<path d="M39.8678 63.0955C38.8915 64.0717 38.8915 65.6547 39.8678 66.6312C40.8068 67.57 41.0755 68.8713 40.587 70.112C40.106 71.3337 39.0403 72.0903 37.7348 72.1362C37.6318 72.14 37.528 72.1418 37.424 72.1418C36.0433 72.1418 34.924 73.261 34.924 74.6418C34.924 76.0225 36.0433 77.1418 37.424 77.1418C37.588 77.1418 37.7513 77.139 37.9123 77.133C41.217 77.0168 44.0248 75.0285 45.2393 71.9438C46.4613 68.8403 45.7578 65.45 43.4033 63.0953C42.427 62.1192 40.844 62.1192 39.8678 63.0955Z" fill="#007EF3" stroke="#007EF3"/>
<path fill-rule="evenodd" clip-rule="evenodd" d="M104.525 58.928C108.549 47.693 105.452 35.0378 96.6488 26.9165C97.0918 25.523 97.3153 24.0715 97.3153 22.5808C97.3153 14.674 90.8825 8.24129 82.9758 8.24129C81.3778 8.24129 79.8155 8.50104 78.3213 9.01429C75.9258 4.18554 70.9683 1.05054 65.4733 1.05054C60.5618 1.05054 56.219 3.53254 53.6338 7.30829C51.0483 3.53254 46.7055 1.05054 41.794 1.05054C36.493 1.05054 31.6893 3.97079 29.2068 8.51429C28.2903 8.33254 27.3548 8.24129 26.408 8.24129C18.5013 8.24129 12.0685 14.674 12.0685 22.5808C12.0685 23.542 12.1635 24.495 12.3518 25.4285C12.2538 25.5103 12.144 25.6005 12.0213 25.7005C5.0195 31.3998 1.00225 39.8353 1 48.844C0.998002 57.2385 4.48125 65.136 10.6185 70.7875C10.1758 72.1808 9.95225 73.632 9.95225 75.1223C9.95225 83.029 16.385 89.4618 24.292 89.4618C25.89 89.4618 27.4523 89.202 28.9465 88.6888C31.342 93.5175 36.2993 96.6525 41.7943 96.6525C46.7057 96.6525 51.0485 94.1705 53.634 90.3948C56.1515 94.071 60.335 96.521 65.0872 96.6473C67.9628 111.613 81.067 122.949 96.7505 122.949C114.533 122.949 129 108.375 129 90.461C129 75.247 118.564 62.4418 104.525 58.928ZM56.1338 82.3133V62.2718C56.1338 60.891 55.0145 59.7718 53.6338 59.7718C52.253 59.7718 51.1338 60.891 51.1338 62.2718V82.3133C51.1338 87.4633 46.944 91.6528 41.794 91.6528C37.812 91.6528 34.2633 89.1258 32.964 85.3648C32.6443 84.439 31.8133 83.7855 30.8385 83.6925C30.4145 83.652 30.282 83.6418 30.114 83.6398H30.0743C29.6668 83.6398 29.2608 83.6285 28.867 83.6068C28.499 83.586 28.1318 83.6473 27.7905 83.785C26.6795 84.2343 25.5025 84.462 24.2915 84.462C19.1415 84.462 14.9518 80.2723 14.9518 75.1225C14.9518 73.7235 15.253 72.379 15.8473 71.1263C16.3405 70.0863 16.06 68.844 15.1675 68.1168C9.33975 63.3683 5.99825 56.3443 6 48.8455C6.00175 41.3468 9.347 34.3243 15.1778 29.5785C16.6763 28.3585 17.1633 27.8403 17.443 27.1675C17.671 26.6195 17.6963 26.008 17.5145 25.4428C17.2185 24.5218 17.0685 23.559 17.0685 22.581C17.0685 17.431 21.2583 13.2415 26.408 13.2415C27.5495 13.2415 28.6638 13.4445 29.7195 13.845C30.351 14.0845 31.0528 14.058 31.6645 13.7723C32.2765 13.4863 32.7465 12.965 32.968 12.327C34.2708 8.57304 37.8175 6.05079 41.794 6.05079C46.944 6.05079 51.1338 10.2405 51.1338 15.3903V39.6688C51.1338 41.0495 52.253 42.1688 53.6338 42.1688C55.0145 42.1688 56.1338 41.0495 56.1338 39.6688V15.3903C56.1338 10.2403 60.3235 6.05079 65.4733 6.05079C69.4553 6.05079 73.0037 8.57779 74.3035 12.3388C74.6232 13.2645 75.454 13.918 76.4287 14.011C76.846 14.051 76.9902 14.0638 77.1458 14.0638H77.193C77.601 14.0638 78.007 14.0748 78.3995 14.097C78.768 14.117 79.135 14.0565 79.4768 13.9185C80.5875 13.4693 81.7648 13.2415 82.9758 13.2415C88.1258 13.2415 92.3153 17.4313 92.3153 22.581C92.3153 23.9803 92.014 25.3248 91.4198 26.577C90.9265 27.6173 91.207 28.8595 92.0995 29.5868C100.547 36.4688 103.509 48.0593 99.4963 58.0905C98.591 58.0133 97.675 57.9738 96.7503 57.9738C85.406 57.9738 75.411 63.905 69.6605 72.851C69.617 72.85 69.5738 72.849 69.5308 72.8475C68.227 72.8015 67.1613 72.0448 66.6803 70.823C66.1917 69.5823 66.4608 68.281 67.3995 67.3423C68.3758 66.366 68.3758 64.783 67.3995 63.8065C66.4233 62.8303 64.8403 62.8303 63.8638 63.8065C61.5093 66.161 60.8058 69.5515 62.0278 72.6548C62.9655 75.0365 64.853 76.7648 67.1863 77.4823C65.459 81.4595 64.5003 85.85 64.5003 90.4615C64.5003 90.844 64.507 91.225 64.52 91.6045C59.8165 91.1258 56.1338 87.1415 56.1338 82.3133ZM69.5005 90.4615C69.5005 105.619 81.7248 117.95 96.7503 117.95C111.776 117.95 124 105.619 124 90.4615C124 75.3045 111.776 62.9735 96.7503 62.9735C81.7248 62.9735 69.5005 75.3045 69.5005 90.4615Z" fill="#007EF3"/>
<path d="M96.6488 26.9165L96.1722 26.7651L96.0759 27.0683L96.3097 27.284L96.6488 26.9165ZM104.525 58.928L104.054 58.7594L103.868 59.2791L104.404 59.4131L104.525 58.928ZM78.3213 9.01429L77.8733 9.23649L78.0685 9.62979L78.4837 9.48717L78.3213 9.01429ZM53.6338 7.30829L53.2212 7.59078L53.6338 8.19328L54.0463 7.59077L53.6338 7.30829ZM29.2068 8.51429L29.1095 9.00474L29.4695 9.07614L29.6455 8.75403L29.2068 8.51429ZM12.3518 25.4285L12.672 25.8125L12.9008 25.6217L12.8419 25.3297L12.3518 25.4285ZM12.0213 25.7005L12.3369 26.0883L12.3371 26.0882L12.0213 25.7005ZM1 48.844L0.5 48.8439L0.5 48.8439L1 48.844ZM10.6185 70.7875L11.095 70.939L11.1915 70.6355L10.9572 70.4197L10.6185 70.7875ZM28.9465 88.6888L29.3944 88.4666L29.1993 88.0733L28.7841 88.2159L28.9465 88.6888ZM53.634 90.3948L54.0465 90.1123L53.634 89.5098L53.2215 90.1123L53.634 90.3948ZM65.0872 96.6473L65.5783 96.5529L65.5024 96.1581L65.1005 96.1475L65.0872 96.6473ZM129 90.461H129.5V90.461L129 90.461ZM32.964 85.3648L32.4914 85.528L32.4914 85.5281L32.964 85.3648ZM30.8385 83.6925L30.791 84.1903L30.791 84.1903L30.8385 83.6925ZM30.114 83.6398L30.12 83.1398H30.114V83.6398ZM28.867 83.6068L28.8389 84.106L28.8394 84.106L28.867 83.6068ZM27.7905 83.785L27.6033 83.3214L27.6031 83.3215L27.7905 83.785ZM15.8473 71.1263L16.299 71.3406L16.299 71.3406L15.8473 71.1263ZM15.1675 68.1168L15.4833 67.7292L15.4833 67.7292L15.1675 68.1168ZM6 48.8455L5.5 48.8454L6 48.8455ZM15.1778 29.5785L15.4934 29.9663L15.4934 29.9663L15.1778 29.5785ZM17.443 27.1675L16.9814 26.9755L16.9813 26.9756L17.443 27.1675ZM17.5145 25.4428L17.0385 25.5958L17.0385 25.5958L17.5145 25.4428ZM29.7195 13.845L29.5422 14.3125L29.5422 14.3125L29.7195 13.845ZM31.6645 13.7723L31.8761 14.2253L31.8762 14.2253L31.6645 13.7723ZM32.968 12.327L33.4403 12.491L33.4404 12.491L32.968 12.327ZM74.3035 12.3388L74.7761 12.1756L74.7761 12.1755L74.3035 12.3388ZM76.4287 14.011L76.4765 13.5133L76.4762 13.5133L76.4287 14.011ZM78.3995 14.097L78.3712 14.5962L78.3724 14.5963L78.3995 14.097ZM79.4768 13.9185L79.664 14.3822L79.6642 14.3821L79.4768 13.9185ZM91.4198 26.577L90.968 26.3627L90.968 26.3628L91.4198 26.577ZM92.0995 29.5868L91.7837 29.9744L91.7837 29.9744L92.0995 29.5868ZM99.4963 58.0905L99.4537 58.5887L99.8229 58.6202L99.9605 58.2762L99.4963 58.0905ZM69.6605 72.851L69.649 73.3509L69.9294 73.3573L70.0811 73.1214L69.6605 72.851ZM69.5308 72.8475L69.5131 73.3472L69.5134 73.3472L69.5308 72.8475ZM66.6803 70.823L67.1455 70.6399V70.6399L66.6803 70.823ZM67.3995 63.8065L67.7531 63.453L67.7531 63.453L67.3995 63.8065ZM63.8638 63.8065L63.5102 63.4529L63.5102 63.453L63.8638 63.8065ZM62.0278 72.6548L62.493 72.4716L62.493 72.4716L62.0278 72.6548ZM67.1863 77.4823L67.6449 77.6815L67.8676 77.1687L67.3332 77.0044L67.1863 77.4823ZM64.52 91.6045L64.4694 92.102L65.0393 92.16L65.0197 91.5874L64.52 91.6045ZM96.3097 27.284C104.965 35.2692 108.01 47.7134 104.054 58.7594L104.996 59.0966C109.087 47.6727 105.939 34.8064 96.9878 26.549L96.3097 27.284ZM96.8153 22.5808C96.8153 24.021 96.5994 25.4214 96.1722 26.7651L97.1253 27.068C97.5841 25.6247 97.8153 24.1221 97.8153 22.5808H96.8153ZM82.9758 8.74129C90.6064 8.74129 96.8153 14.9502 96.8153 22.5808H97.8153C97.8153 14.3979 91.1587 7.74129 82.9758 7.74129V8.74129ZM78.4837 9.48717C79.9251 8.99205 81.4325 8.74129 82.9758 8.74129V7.74129C81.323 7.74129 79.7059 8.01002 78.1588 8.54141L78.4837 9.48717ZM65.4733 1.55054C70.7765 1.55054 75.5615 4.57631 77.8733 9.23649L78.7692 8.79208C76.29 3.79476 71.16 0.550537 65.4733 0.550537V1.55054ZM54.0463 7.59077C56.5426 3.94488 60.7342 1.55054 65.4733 1.55054V0.550537C60.3893 0.550537 55.8954 3.1202 53.2212 7.02581L54.0463 7.59077ZM41.794 1.55054C46.5331 1.55054 50.7246 3.94488 53.2212 7.59078L54.0463 7.02579C51.3719 3.1202 46.8779 0.550537 41.794 0.550537V1.55054ZM29.6455 8.75403C32.0414 4.369 36.6781 1.55054 41.794 1.55054V0.550537C36.3079 0.550537 31.3371 3.57258 28.768 8.27455L29.6455 8.75403ZM26.408 8.74129C27.3225 8.74129 28.2254 8.82942 29.1095 9.00474L29.304 8.02384C28.3551 7.83565 27.387 7.74129 26.408 7.74129V8.74129ZM12.5685 22.5808C12.5685 14.9502 18.7774 8.74129 26.408 8.74129V7.74129C18.2251 7.74129 11.5685 14.3979 11.5685 22.5808H12.5685ZM12.8419 25.3297C12.6602 24.4289 12.5685 23.509 12.5685 22.5808H11.5685C11.5685 23.575 11.6668 24.5611 11.8616 25.5274L12.8419 25.3297ZM12.3371 26.0882C12.4608 25.9874 12.5721 25.8958 12.672 25.8125L12.0315 25.0446C11.9354 25.1247 11.8272 25.2137 11.7055 25.3129L12.3371 26.0882ZM1.5 48.8442C1.50221 39.9862 5.45146 31.6929 12.3369 26.0883L11.7056 25.3128C4.58754 31.1067 0.502289 39.6844 0.5 48.8439L1.5 48.8442ZM10.9572 70.4197C4.9225 64.8627 1.49804 57.0985 1.5 48.8442L0.5 48.8439C0.497968 57.3786 4.04 65.4094 10.2798 71.1553L10.9572 70.4197ZM10.4523 75.1223C10.4523 73.6826 10.6681 72.2824 11.095 70.939L10.142 70.6361C9.68341 72.0791 9.45225 73.5815 9.45225 75.1223H10.4523ZM24.292 88.9618C16.6611 88.9618 10.4523 82.7529 10.4523 75.1223H9.45225C9.45225 83.3052 16.1089 89.9618 24.292 89.9618V88.9618ZM28.7841 88.2159C27.3426 88.711 25.8353 88.9618 24.292 88.9618V89.9618C25.9447 89.9618 27.5619 89.6931 29.1089 89.1617L28.7841 88.2159ZM41.7943 96.1525C36.491 96.1525 31.7063 93.1268 29.3944 88.4666L28.4986 88.911C30.9777 93.9083 36.1075 97.1525 41.7943 97.1525V96.1525ZM53.2215 90.1123C50.7249 93.7582 46.5333 96.1525 41.7943 96.1525V97.1525C46.8782 97.1525 51.3721 94.5829 54.0466 90.6773L53.2215 90.1123ZM65.1005 96.1475C60.5155 96.0257 56.4775 93.6621 54.0465 90.1123L53.2215 90.6773C55.8255 94.4799 60.1545 97.0164 65.074 97.1471L65.1005 96.1475ZM96.7505 122.449C81.3142 122.449 68.4099 111.29 65.5783 96.5529L64.5962 96.7416C67.5156 111.935 80.8198 123.449 96.7505 123.449V122.449ZM128.5 90.461C128.5 108.102 114.253 122.449 96.7505 122.449V123.449C114.813 123.449 129.5 108.648 129.5 90.461H128.5ZM104.404 59.4131C118.224 62.872 128.5 75.48 128.5 90.461L129.5 90.461C129.5 75.0141 118.905 62.0116 104.646 58.443L104.404 59.4131ZM55.6338 62.2718V82.3133H56.6338V62.2718H55.6338ZM53.6338 60.2718C54.7384 60.2718 55.6338 61.1672 55.6338 62.2718H56.6338C56.6338 60.6149 55.2906 59.2718 53.6338 59.2718V60.2718ZM51.6338 62.2718C51.6338 61.1672 52.5291 60.2718 53.6338 60.2718V59.2718C51.9769 59.2718 50.6338 60.6149 50.6338 62.2718H51.6338ZM51.6338 82.3133V62.2718H50.6338V82.3133H51.6338ZM41.794 92.1528C47.2201 92.1528 51.6338 87.7394 51.6338 82.3133H50.6338C50.6338 87.1871 46.6679 91.1528 41.794 91.1528V92.1528ZM32.4914 85.5281C33.8604 89.4908 37.599 92.1528 41.794 92.1528V91.1528C38.025 91.1528 34.6662 88.7608 33.4366 85.2015L32.4914 85.5281ZM30.791 84.1903C31.5709 84.2647 32.2356 84.7875 32.4914 85.528L33.4366 85.2016C33.0529 84.0906 32.0556 83.3064 30.886 83.1948L30.791 84.1903ZM30.1081 84.1397C30.2521 84.1415 30.3645 84.1495 30.791 84.1903L30.886 83.1948C30.4645 83.1545 30.3119 83.1421 30.12 83.1398L30.1081 84.1397ZM30.0743 84.1398H30.114V83.1398H30.0743V84.1398ZM28.8394 84.106C29.2425 84.1283 29.6577 84.1398 30.0743 84.1398V83.1398C29.6758 83.1398 29.279 83.1288 28.8946 83.1076L28.8394 84.106ZM27.9777 84.2487C28.2511 84.1383 28.5449 84.0894 28.8389 84.106L28.8952 83.1076C28.4531 83.0827 28.0124 83.1563 27.6033 83.3214L27.9777 84.2487ZM24.2915 84.962C25.5661 84.962 26.8068 84.7222 27.9779 84.2486L27.6031 83.3215C26.5523 83.7464 25.4389 83.962 24.2915 83.962V84.962ZM14.4518 75.1225C14.4518 80.5484 18.8654 84.962 24.2915 84.962V83.962C19.4176 83.962 15.4518 79.9961 15.4518 75.1225H14.4518ZM15.3955 70.912C14.7692 72.2323 14.4518 73.6501 14.4518 75.1225H15.4518C15.4518 73.797 15.7368 72.5257 16.299 71.3406L15.3955 70.912ZM14.8517 68.5044C15.5657 69.0862 15.7901 70.08 15.3955 70.912L16.299 71.3406C16.8909 70.0925 16.5543 68.6018 15.4833 67.7292L14.8517 68.5044ZM5.5 48.8454C5.49822 56.495 8.90769 63.6612 14.8517 68.5044L15.4833 67.7292C9.77181 63.0754 6.49829 56.1936 6.5 48.8457L5.5 48.8454ZM14.8621 29.1908C8.9151 34.0311 5.50179 41.1958 5.5 48.8454L6.5 48.8457C6.50172 41.4977 9.7789 34.6174 15.4934 29.9663L14.8621 29.1908ZM16.9813 26.9756C16.7565 27.5163 16.3705 27.9627 14.8621 29.1908L15.4934 29.9663C16.982 28.7543 17.57 28.1643 17.9047 27.3595L16.9813 26.9756ZM17.0385 25.5958C17.1839 26.0481 17.1637 26.5373 16.9814 26.9755L17.9046 27.3596C18.1783 26.7018 18.2086 25.9679 17.9905 25.2897L17.0385 25.5958ZM16.5685 22.581C16.5685 23.6104 16.7264 24.6248 17.0385 25.5958L17.9905 25.2898C17.7106 24.4188 17.5685 23.5077 17.5685 22.581H16.5685ZM26.408 12.7415C20.9821 12.7415 16.5685 17.1549 16.5685 22.581H17.5685C17.5685 17.7072 21.5344 13.7415 26.408 13.7415V12.7415ZM29.8968 13.3775C28.7838 12.9553 27.6094 12.7415 26.408 12.7415V13.7415C27.4896 13.7415 28.5437 13.9338 29.5422 14.3125L29.8968 13.3775ZM31.4529 13.3193C30.9634 13.5479 30.4019 13.5691 29.8968 13.3775L29.5422 14.3125C30.3001 14.6 31.1422 14.5681 31.8761 14.2253L31.4529 13.3193ZM32.4957 12.163C32.3184 12.6735 31.9424 13.0905 31.4528 13.3193L31.8762 14.2253C32.6106 13.8821 33.1746 13.2566 33.4403 12.491L32.4957 12.163ZM41.794 5.55079C37.6047 5.55079 33.8683 8.20774 32.4956 12.1631L33.4404 12.491C34.6732 8.93833 38.0303 6.55079 41.794 6.55079V5.55079ZM51.6338 15.3903C51.6338 9.96439 47.2201 5.55079 41.794 5.55079V6.55079C46.6679 6.55079 50.6338 10.5167 50.6338 15.3903H51.6338ZM51.6338 39.6688V15.3903H50.6338V39.6688H51.6338ZM53.6338 41.6688C52.5291 41.6688 51.6338 40.7734 51.6338 39.6688H50.6338C50.6338 41.3257 51.9769 42.6688 53.6338 42.6688V41.6688ZM55.6338 39.6688C55.6338 40.7734 54.7384 41.6688 53.6338 41.6688V42.6688C55.2906 42.6688 56.6338 41.3257 56.6338 39.6688H55.6338ZM55.6338 15.3903V39.6688H56.6338V15.3903H55.6338ZM65.4733 5.55079C60.0474 5.55079 55.6338 9.96414 55.6338 15.3903H56.6338C56.6338 10.5164 60.5996 6.55079 65.4733 6.55079V5.55079ZM74.7761 12.1755C73.4066 8.2128 69.6683 5.55079 65.4733 5.55079V6.55079C69.2422 6.55079 72.6009 8.94278 73.8309 12.5021L74.7761 12.1755ZM76.4762 13.5133C75.6964 13.4389 75.0319 12.9161 74.7761 12.1756L73.8309 12.502C74.2146 13.613 75.2116 14.3972 76.3813 14.5088L76.4762 13.5133ZM77.1458 13.5638C77.0194 13.5638 76.902 13.5541 76.4765 13.5133L76.381 14.5088C76.79 14.548 76.9611 14.5638 77.1458 14.5638V13.5638ZM77.193 13.5638H77.1458V14.5638H77.193V13.5638ZM78.4278 13.5978C78.0253 13.575 77.6098 13.5638 77.193 13.5638V14.5638C77.5922 14.5638 77.9887 14.5746 78.3712 14.5962L78.4278 13.5978ZM79.2895 13.4549C79.0162 13.5653 78.7224 13.6138 78.4266 13.5978L78.3724 14.5963C78.8136 14.6202 79.2538 14.5478 79.664 14.3822L79.2895 13.4549ZM82.9758 12.7415C81.7012 12.7415 80.4603 12.9814 79.2893 13.455L79.6642 14.3821C80.7147 13.9572 81.8283 13.7415 82.9758 13.7415V12.7415ZM92.8153 22.581C92.8153 17.1552 88.4019 12.7415 82.9758 12.7415V13.7415C87.8496 13.7415 91.8153 17.7074 91.8153 22.581H92.8153ZM91.8715 26.7914C92.4978 25.4715 92.8153 24.0537 92.8153 22.581H91.8153C91.8153 23.9069 91.5302 25.1781 90.968 26.3627L91.8715 26.7914ZM92.4153 29.1992C91.7013 28.6174 91.4769 27.6236 91.8715 26.7913L90.968 26.3628C90.3761 27.611 90.7127 29.1017 91.7837 29.9744L92.4153 29.1992ZM99.9605 58.2762C104.054 48.0424 101.032 36.2195 92.4153 29.1991L91.7837 29.9744C100.061 36.7181 102.963 48.0762 99.032 57.9049L99.9605 58.2762ZM96.7503 58.4738C97.6608 58.4738 98.5626 58.5127 99.4537 58.5887L99.5388 57.5924C98.6194 57.5139 97.6892 57.4738 96.7503 57.4738V58.4738ZM70.0811 73.1214C75.7444 64.311 85.5848 58.4738 96.7503 58.4738V57.4738C85.2272 57.4738 75.0776 63.499 69.2399 72.5807L70.0811 73.1214ZM69.5134 73.3472C69.5598 73.3489 69.6059 73.3499 69.649 73.3509L69.672 72.3512C69.628 72.3502 69.5877 72.3492 69.5481 72.3478L69.5134 73.3472ZM66.215 71.0062C66.7683 72.4116 68.0089 73.2942 69.5131 73.3472L69.5484 72.3479C68.4452 72.3089 67.5542 71.6779 67.1455 70.6399L66.215 71.0062ZM67.046 66.9887C65.9657 68.069 65.654 69.5813 66.215 71.0062L67.1455 70.6399C66.7295 69.5833 66.9558 68.4931 67.7531 67.6958L67.046 66.9887ZM67.0459 64.16C67.827 64.9413 67.8269 66.2078 67.046 66.9887L67.7531 67.6958C68.9246 66.5243 68.9245 64.6248 67.7531 63.453L67.0459 64.16ZM64.2173 64.1601C64.9985 63.3791 66.265 63.3791 67.046 64.1601L67.7531 63.453C66.5815 62.2814 64.682 62.2815 63.5102 63.4529L64.2173 64.1601ZM62.493 72.4716C61.3438 69.5531 62.0038 66.3735 64.2173 64.1601L63.5102 63.453C61.0147 65.9485 60.2678 69.5499 61.5625 72.838L62.493 72.4716ZM67.3332 77.0044C65.147 76.3321 63.3756 74.7134 62.493 72.4716L61.5625 72.838C62.5554 75.3596 64.559 77.1975 67.0393 77.9602L67.3332 77.0044ZM65.0003 90.4615C65.0003 85.9199 65.9444 81.5971 67.6449 77.6815L66.7276 77.2831C64.9736 81.322 64.0003 85.7802 64.0003 90.4615H65.0003ZM65.0197 91.5874C65.0069 91.2134 65.0003 90.8382 65.0003 90.4615H64.0003C64.0003 90.8499 64.0071 91.2366 64.0203 91.6217L65.0197 91.5874ZM55.6338 82.3133C55.6338 87.4009 59.5135 91.5975 64.4694 92.102L64.5706 91.1071C60.1195 90.654 56.6338 86.8822 56.6338 82.3133H55.6338ZM96.7503 117.45C82.005 117.45 70.0005 105.347 70.0005 90.4615H69.0005C69.0005 105.891 81.4445 118.45 96.7503 118.45V117.45ZM123.5 90.4615C123.5 105.347 111.496 117.45 96.7503 117.45V118.45C112.056 118.45 124.5 105.891 124.5 90.4615H123.5ZM96.7503 63.4735C111.496 63.4735 123.5 75.5766 123.5 90.4615H124.5C124.5 75.0325 112.056 62.4735 96.7503 62.4735V63.4735ZM70.0005 90.4615C70.0005 75.5766 82.005 63.4735 96.7503 63.4735V62.4735C81.4445 62.4735 69.0005 75.0325 69.0005 90.4615H70.0005Z" fill="#007EF3"/>
<path fill-rule="evenodd" clip-rule="evenodd" d="M105.275 81.886H108.698C111.747 81.886 114.228 84.378 114.228 87.4405V93.4822C114.228 96.5452 111.747 99.037 108.698 99.037H105.275V102.511C105.275 105.573 102.794 108.065 99.7447 108.065H93.7555C90.706 108.065 88.225 105.573 88.225 102.511V99.037H84.8025C81.7532 99.037 79.2722 96.5452 79.2722 93.4822V87.4405C79.2722 84.3777 81.753 81.886 84.8025 81.886H88.225V78.412C88.225 75.3492 90.706 72.8575 93.7555 72.8575H99.7447C102.794 72.8575 105.275 75.3492 105.275 78.412V81.886ZM108.698 94.0372C108.99 94.0372 109.228 93.7885 109.228 93.4825V87.4407C109.228 87.135 108.99 86.8862 108.698 86.8862H102.775C101.394 86.8862 100.275 85.767 100.275 84.3862V78.4122C100.275 78.1065 100.037 77.8577 99.7447 77.8577H93.7555C93.463 77.8577 93.225 78.1065 93.225 78.4122V84.3862C93.225 85.767 92.1057 86.8862 90.725 86.8862H84.8025C84.5102 86.8862 84.2722 87.135 84.2722 87.4407V93.4825C84.2722 93.7885 84.51 94.0372 84.8025 94.0372H90.725C92.1057 94.0372 93.225 95.1565 93.225 96.5372V102.511C93.225 102.817 93.463 103.065 93.7555 103.065H99.7447C100.037 103.065 100.275 102.817 100.275 102.511V96.5372C100.275 95.1565 101.394 94.0372 102.775 94.0372H108.698Z" fill="#007EF3"/>
<path d="M105.275 81.886H104.775V82.386H105.275V81.886ZM105.275 99.037V98.537H104.775V99.037H105.275ZM88.225 99.037H88.725V98.537H88.225V99.037ZM88.225 81.886V82.386H88.725V81.886H88.225ZM108.698 81.386H105.275V82.386H108.698V81.386ZM114.728 87.4405C114.728 84.1039 112.025 81.386 108.698 81.386V82.386C111.469 82.386 113.728 84.6521 113.728 87.4405H114.728ZM114.728 93.4822V87.4405H113.728V93.4822H114.728ZM108.698 99.537C112.025 99.537 114.728 96.8193 114.728 93.4822H113.728C113.728 96.2711 111.469 98.537 108.698 98.537V99.537ZM105.275 99.537H108.698V98.537H105.275V99.537ZM105.775 102.511V99.037H104.775V102.511H105.775ZM99.7447 108.565C103.072 108.565 105.775 105.848 105.775 102.511H104.775C104.775 105.299 102.516 107.565 99.7447 107.565V108.565ZM93.7555 108.565H99.7447V107.565H93.7555V108.565ZM87.725 102.511C87.725 105.848 90.4278 108.565 93.7555 108.565V107.565C90.9841 107.565 88.725 105.299 88.725 102.511H87.725ZM87.725 99.037V102.511H88.725V99.037H87.725ZM84.8025 99.537H88.225V98.537H84.8025V99.537ZM78.7722 93.4822C78.7722 96.8193 81.475 99.537 84.8025 99.537V98.537C82.0314 98.537 79.7722 96.2712 79.7722 93.4822H78.7722ZM78.7722 87.4405V93.4822H79.7722V87.4405H78.7722ZM84.8025 81.386C81.4748 81.386 78.7722 84.1037 78.7722 87.4405H79.7722C79.7722 84.6518 82.0312 82.386 84.8025 82.386V81.386ZM88.225 81.386H84.8025V82.386H88.225V81.386ZM87.725 78.412V81.886H88.725V78.412H87.725ZM93.7555 72.3575C90.4278 72.3575 87.725 75.0751 87.725 78.412H88.725C88.725 75.6233 90.9841 73.3575 93.7555 73.3575V72.3575ZM99.7447 72.3575H93.7555V73.3575H99.7447V72.3575ZM105.775 78.412C105.775 75.0751 103.072 72.3575 99.7447 72.3575V73.3575C102.516 73.3575 104.775 75.6233 104.775 78.412H105.775ZM105.775 81.886V78.412H104.775V81.886H105.775ZM108.728 93.4825C108.728 93.5043 108.72 93.5199 108.711 93.529C108.703 93.5378 108.698 93.5372 108.698 93.5372V94.5372C109.287 94.5372 109.728 94.0434 109.728 93.4825H108.728ZM108.728 87.4407V93.4825H109.728V87.4407H108.728ZM108.698 87.3862C108.698 87.3862 108.703 87.3857 108.711 87.3945C108.72 87.4036 108.728 87.4191 108.728 87.4407H109.728C109.728 86.8799 109.287 86.3862 108.698 86.3862V87.3862ZM102.775 87.3862H108.698V86.3862H102.775V87.3862ZM99.7752 84.3862C99.7752 86.0431 101.118 87.3862 102.775 87.3862V86.3862C101.671 86.3862 100.775 85.4908 100.775 84.3862H99.7752ZM99.7752 78.4122V84.3862H100.775V78.4122H99.7752ZM99.7447 78.3577C99.7451 78.3577 99.7499 78.3572 99.7584 78.366C99.7671 78.3751 99.7752 78.3906 99.7752 78.4122H100.775C100.775 77.8514 100.334 77.3577 99.7447 77.3577V78.3577ZM93.7555 78.3577H99.7447V77.3577H93.7555V78.3577ZM93.725 78.4122C93.725 78.3906 93.733 78.3751 93.7418 78.366C93.7502 78.3572 93.755 78.3577 93.7555 78.3577V77.3577C93.1662 77.3577 92.725 77.8514 92.725 78.4122H93.725ZM93.725 84.3862V78.4122H92.725V84.3862H93.725ZM90.725 87.3862C92.3819 87.3862 93.725 86.0431 93.725 84.3862H92.725C92.725 85.4908 91.8296 86.3862 90.725 86.3862V87.3862ZM84.8025 87.3862H90.725V86.3862H84.8025V87.3862ZM84.7722 87.4407C84.7722 87.4191 84.7803 87.4036 84.7891 87.3944C84.7975 87.3856 84.8023 87.3862 84.8025 87.3862V86.3862C84.2133 86.3862 83.7722 86.8801 83.7722 87.4407H84.7722ZM84.7722 93.4825V87.4407H83.7722V93.4825H84.7722ZM84.8025 93.5372C84.8021 93.5372 84.7974 93.5378 84.7891 93.5291C84.7804 93.52 84.7722 93.5045 84.7722 93.4825H83.7722C83.7722 94.0431 84.2128 94.5372 84.8025 94.5372V93.5372ZM90.725 93.5372H84.8025V94.5372H90.725V93.5372ZM93.725 96.5372C93.725 94.8803 92.3819 93.5372 90.725 93.5372V94.5372C91.8296 94.5372 92.725 95.4326 92.725 96.5372H93.725ZM93.725 102.511V96.5372H92.725V102.511H93.725ZM93.7555 102.565C93.755 102.565 93.7502 102.566 93.7418 102.557C93.733 102.548 93.725 102.533 93.725 102.511H92.725C92.725 103.072 93.1662 103.565 93.7555 103.565V102.565ZM99.7447 102.565H93.7555V103.565H99.7447V102.565ZM99.7752 102.511C99.7752 102.533 99.7671 102.548 99.7584 102.557C99.7499 102.566 99.7451 102.565 99.7447 102.565V103.565C100.334 103.565 100.775 103.072 100.775 102.511H99.7752ZM99.7752 96.5372V102.511H100.775V96.5372H99.7752ZM102.775 93.5372C101.118 93.5372 99.7752 94.8803 99.7752 96.5372H100.775C100.775 95.4326 101.671 94.5372 102.775 94.5372V93.5372ZM108.698 93.5372H102.775V94.5372H108.698V93.5372Z" fill="#007EF3"/>
<path d="M55.9425 50.06C55.5393 49.0925 54.549 48.4633 53.4998 48.52C52.4598 48.5763 51.5455 49.2945 51.2425 50.29C50.9433 51.2735 51.2945 52.3735 52.112 52.999C52.9525 53.642 54.1408 53.6828 55.0225 53.095C56.0013 52.4423 56.3948 51.1455 55.9425 50.06Z" fill="#007EF3" stroke="#007EF3"/>
</svg>
