<svg width="97" height="130" viewBox="0 0 97 130" fill="none" xmlns="http://www.w3.org/2000/svg">
<path fill-rule="evenodd" clip-rule="evenodd" d="M87.4415 15.6383H70.008V14.0212C70.008 12.6407 68.8887 11.5212 67.508 11.5212H59.2925C59.281 5.71775 54.5562 1 48.75 1C42.9437 1 38.219 5.71775 38.2075 11.5212H29.992C28.6112 11.5212 27.492 12.6407 27.492 14.0212V15.6383H10.0585C5.08998 15.6383 1.04773 19.6805 1.04773 24.649V119.989C1.04773 122.454 1.04773 129 7.55848 129H87.4415C92.41 129 96.452 124.958 96.452 119.989V24.649C96.4522 19.6805 92.41 15.6383 87.4415 15.6383ZM32.492 16.5212H41.0967C41.8965 16.5212 42.648 16.1388 43.1185 15.492C43.589 14.8452 43.7215 14.0125 43.4752 13.2515C43.2975 12.7025 43.2075 12.1275 43.2075 11.5425C43.2075 8.48625 45.6937 6 48.75 6C51.8062 6 54.2925 8.48625 54.2925 11.5425C54.2925 12.1275 54.2025 12.7025 54.0247 13.2515C53.7785 14.0125 53.911 14.8452 54.3815 15.492C54.852 16.1388 55.6035 16.5212 56.4032 16.5212H65.008V26.6385H32.492V16.5212ZM87.4417 124C89.653 124 91.4522 122.201 91.4522 119.989H91.452V24.649C91.452 22.4375 89.653 20.6383 87.4415 20.6383H70.008V26.6385H82.952C84.3327 26.6385 85.452 27.758 85.452 29.1385V62.6198C85.452 64.0005 84.3327 65.1198 82.952 65.1198C81.5712 65.1198 80.452 64.0005 80.452 62.6198V31.6385H17.0477V113H80.4522V85.2228C80.4522 83.8423 81.5715 82.7227 82.9522 82.7227C84.333 82.7227 85.4522 83.8423 85.4522 85.2228V115.5C85.4522 116.881 84.333 118 82.9522 118H14.548C13.1672 118 12.048 116.881 12.048 115.5V29.1385C12.048 27.758 13.1672 26.6385 14.548 26.6385H27.492V20.6383H10.0585C7.84698 20.6383 6.04773 22.4375 6.04773 24.649V119.989C6.04773 121.222 6.09548 122.738 6.46773 123.531C6.58598 123.783 6.68823 124 7.55848 124H87.4417Z" fill="#007EF3"/>
<path d="M70.008 15.6383H69.508V16.1383H70.008V15.6383ZM59.2925 11.5212L58.7925 11.5222L58.7935 12.0212H59.2925V11.5212ZM38.2075 11.5212V12.0212H38.7065L38.7075 11.5222L38.2075 11.5212ZM27.492 15.6383V16.1383H27.992V15.6383H27.492ZM96.452 24.649L95.952 24.649V24.649H96.452ZM32.492 16.5212V16.0212H31.992V16.5212H32.492ZM43.4752 13.2515L43.9509 13.0976L43.9509 13.0975L43.4752 13.2515ZM54.0247 13.2515L53.549 13.0975L53.549 13.0976L54.0247 13.2515ZM54.3815 15.492L53.9771 15.7861V15.7861L54.3815 15.492ZM65.008 16.5212H65.508V16.0212H65.008V16.5212ZM65.008 26.6385V27.1385H65.508V26.6385H65.008ZM32.492 26.6385H31.992V27.1385H32.492V26.6385ZM91.4522 119.989H91.9522V119.489H91.4522V119.989ZM91.452 119.989H90.952V120.489H91.452V119.989ZM70.008 20.6383V20.1383H69.508V20.6383H70.008ZM70.008 26.6385H69.508V27.1385H70.008V26.6385ZM80.452 31.6385H80.952V31.1385H80.452V31.6385ZM17.0477 31.6385V31.1385H16.5477V31.6385H17.0477ZM17.0477 113H16.5477V113.5H17.0477V113ZM80.4522 113V113.5H80.9522V113H80.4522ZM27.492 26.6385V27.1385H27.992V26.6385H27.492ZM27.492 20.6383H27.992V20.1383H27.492V20.6383ZM6.46773 123.531L6.92037 123.318L6.92029 123.318L6.46773 123.531ZM70.008 16.1383H87.4415V15.1383H70.008V16.1383ZM69.508 14.0212V15.6383H70.508V14.0212H69.508ZM67.508 12.0212C68.6126 12.0212 69.508 12.9169 69.508 14.0212H70.508C70.508 12.3646 69.1649 11.0212 67.508 11.0212V12.0212ZM59.2925 12.0212H67.508V11.0212H59.2925V12.0212ZM48.75 1.5C54.2804 1.5 58.7815 5.99443 58.7925 11.5222L59.7925 11.5203C59.7804 5.44106 54.8321 0.5 48.75 0.5V1.5ZM38.7075 11.5222C38.7184 5.99443 43.2195 1.5 48.75 1.5V0.5C42.6679 0.5 37.7195 5.44106 37.7075 11.5203L38.7075 11.5222ZM29.992 12.0212H38.2075V11.0212H29.992V12.0212ZM27.992 14.0212C27.992 12.9169 28.8874 12.0212 29.992 12.0212V11.0212C28.3351 11.0212 26.992 12.3646 26.992 14.0212H27.992ZM27.992 15.6383V14.0212H26.992V15.6383H27.992ZM10.0585 16.1383H27.492V15.1383H10.0585V16.1383ZM1.54773 24.649C1.54773 19.9566 5.36612 16.1383 10.0585 16.1383V15.1383C4.81384 15.1383 0.547729 19.4044 0.547729 24.649H1.54773ZM1.54773 119.989V24.649H0.547729V119.989H1.54773ZM7.55848 128.5C6.01839 128.5 4.90298 128.114 4.08455 127.531C3.26291 126.946 2.7034 126.135 2.32281 125.226C1.55323 123.387 1.54773 121.233 1.54773 119.989H0.547729C0.547729 121.21 0.542228 123.561 1.40034 125.612C1.83359 126.647 2.49485 127.627 3.50435 128.346C4.51707 129.067 5.84319 129.5 7.55848 129.5V128.5ZM87.4415 128.5H7.55848V129.5H87.4415V128.5ZM95.952 119.989C95.952 124.682 92.1338 128.5 87.4415 128.5V129.5C92.6861 129.5 96.952 125.234 96.952 119.989H95.952ZM95.952 24.649V119.989H96.952V24.649H95.952ZM87.4415 16.1383C92.1338 16.1383 95.9522 19.9566 95.952 24.649L96.952 24.649C96.9522 19.4044 92.6861 15.1383 87.4415 15.1383V16.1383ZM41.0967 16.0212H32.492V17.0212H41.0967V16.0212ZM42.7142 15.1979C42.3378 15.7152 41.7366 16.0212 41.0967 16.0212V17.0212C42.0564 17.0212 42.9582 16.5623 43.5228 15.7861L42.7142 15.1979ZM42.9995 13.4054C43.1965 14.0143 43.0905 14.6805 42.7142 15.1979L43.5228 15.7861C44.0875 15.01 44.2464 14.0107 43.9509 13.0976L42.9995 13.4054ZM42.7075 11.5425C42.7075 12.179 42.8054 12.806 42.9995 13.4055L43.9509 13.0975C43.7895 12.599 43.7075 12.076 43.7075 11.5425H42.7075ZM48.75 5.5C45.4176 5.5 42.7075 8.21011 42.7075 11.5425H43.7075C43.7075 8.76239 45.9699 6.5 48.75 6.5V5.5ZM54.7925 11.5425C54.7925 8.21011 52.0824 5.5 48.75 5.5V6.5C51.5301 6.5 53.7925 8.76239 53.7925 11.5425H54.7925ZM54.5004 13.4055C54.6945 12.806 54.7925 12.179 54.7925 11.5425H53.7925C53.7925 12.076 53.7104 12.599 53.549 13.0975L54.5004 13.4055ZM54.7858 15.1979C54.4095 14.6805 54.3034 14.0143 54.5004 13.4054L53.549 13.0976C53.2536 14.0107 53.4125 15.01 53.9771 15.7861L54.7858 15.1979ZM56.4032 16.0212C55.7634 16.0212 55.1622 15.7152 54.7858 15.1979L53.9771 15.7861C54.5418 16.5623 55.4436 17.0212 56.4032 17.0212V16.0212ZM65.008 16.0212H56.4032V17.0212H65.008V16.0212ZM65.508 26.6385V16.5212H64.508V26.6385H65.508ZM32.492 27.1385H65.008V26.1385H32.492V27.1385ZM31.992 16.5212V26.6385H32.992V16.5212H31.992ZM90.9522 119.989C90.9522 121.925 89.3768 123.5 87.4417 123.5V124.5C89.9291 124.5 91.9522 122.477 91.9522 119.989H90.9522ZM91.452 120.489H91.4522V119.489H91.452V120.489ZM90.952 24.649V119.989H91.952V24.649H90.952ZM87.4415 21.1383C89.3768 21.1383 90.952 22.7136 90.952 24.649H91.952C91.952 22.1614 89.9292 20.1383 87.4415 20.1383V21.1383ZM70.008 21.1383H87.4415V20.1383H70.008V21.1383ZM70.508 26.6385V20.6383H69.508V26.6385H70.508ZM82.952 26.1385H70.008V27.1385H82.952V26.1385ZM85.952 29.1385C85.952 27.4819 84.6089 26.1385 82.952 26.1385V27.1385C84.0566 27.1385 84.952 28.0341 84.952 29.1385H85.952ZM85.952 62.6198V29.1385H84.952V62.6198H85.952ZM82.952 65.6198C84.6089 65.6198 85.952 64.2766 85.952 62.6198H84.952C84.952 63.7244 84.0566 64.6198 82.952 64.6198V65.6198ZM79.952 62.6198C79.952 64.2766 81.2951 65.6198 82.952 65.6198V64.6198C81.8474 64.6198 80.952 63.7244 80.952 62.6198H79.952ZM79.952 31.6385V62.6198H80.952V31.6385H79.952ZM17.0477 32.1385H80.452V31.1385H17.0477V32.1385ZM17.5477 113V31.6385H16.5477V113H17.5477ZM80.4522 112.5H17.0477V113.5H80.4522V112.5ZM79.9522 85.2228V113H80.9522V85.2228H79.9522ZM82.9522 82.2227C81.2953 82.2227 79.9522 83.5661 79.9522 85.2228H80.9522C80.9522 84.1184 81.8477 83.2227 82.9522 83.2227V82.2227ZM85.9522 85.2228C85.9522 83.5661 84.6092 82.2227 82.9522 82.2227V83.2227C84.0568 83.2227 84.9522 84.1184 84.9522 85.2228H85.9522ZM85.9522 115.5V85.2228H84.9522V115.5H85.9522ZM82.9522 118.5C84.6092 118.5 85.9522 117.157 85.9522 115.5H84.9522C84.9522 116.604 84.0568 117.5 82.9522 117.5V118.5ZM14.548 118.5H82.9522V117.5H14.548V118.5ZM11.548 115.5C11.548 117.157 12.8911 118.5 14.548 118.5V117.5C13.4434 117.5 12.548 116.604 12.548 115.5H11.548ZM11.548 29.1385V115.5H12.548V29.1385H11.548ZM14.548 26.1385C12.8911 26.1385 11.548 27.4819 11.548 29.1385H12.548C12.548 28.0341 13.4434 27.1385 14.548 27.1385V26.1385ZM27.492 26.1385H14.548V27.1385H27.492V26.1385ZM26.992 20.6383V26.6385H27.992V20.6383H26.992ZM10.0585 21.1383H27.492V20.1383H10.0585V21.1383ZM6.54773 24.649C6.54773 22.7136 8.12312 21.1383 10.0585 21.1383V20.1383C7.57084 20.1383 5.54773 22.1614 5.54773 24.649H6.54773ZM6.54773 119.989V24.649H5.54773V119.989H6.54773ZM6.92029 123.318C6.77317 123.005 6.67355 122.501 6.61601 121.879C6.55972 121.27 6.54773 120.602 6.54773 119.989H5.54773C5.54773 120.609 5.55962 121.315 5.62026 121.971C5.67966 122.613 5.79003 123.264 6.01517 123.743L6.92029 123.318ZM7.55848 123.5C7.14628 123.5 7.01263 123.445 6.98062 123.426C6.98037 123.426 6.97999 123.445 6.92037 123.318L6.01509 123.743C6.07372 123.868 6.18359 124.121 6.48159 124.293C6.74783 124.446 7.10043 124.5 7.55848 124.5V123.5ZM87.4417 123.5H7.55848V124.5H87.4417V123.5Z" fill="#007EF3"/>
<path d="M85.26 73.01C84.845 72.0132 83.8067 71.379 82.7292 71.4762C81.6945 71.5695 80.8085 72.3187 80.5375 73.32C80.27 74.309 80.661 75.405 81.497 75.9985C82.3517 76.6052 83.5095 76.6145 84.3737 76.0217C85.3362 75.3617 85.7007 74.0845 85.26 73.01Z" fill="#007EF3" stroke="#007EF3"/>
<path fill-rule="evenodd" clip-rule="evenodd" d="M69.8492 42.0675C66.904 39.2963 63.1397 37.707 59.5215 37.707C54.7062 37.707 50.8747 40.1068 48.7172 41.8615C46.502 40.1093 42.6177 37.707 37.9782 37.707C33.5087 37.707 28.8525 40.1495 25.826 44.081C24.5607 45.7248 23.6495 47.5263 23.117 49.4365C23.0957 49.5125 23.0752 49.5883 23.056 49.6628C22.805 50.6233 22.6537 51.6055 22.607 52.583C22.6067 52.583 22.6067 52.5833 22.6067 52.5833C22.5387 54.006 22.6212 55.3538 22.8592 56.7038C23.26 58.977 24.0837 61.1185 25.4525 63.444C27.3637 66.6903 33.3907 71.7388 40.4842 77.518L40.4862 77.5196C41.9275 78.694 43.2889 79.8034 44.3195 80.6763C45.5972 81.7588 47.1635 82.3 48.7305 82.3C50.296 82.3 51.8617 81.7593 53.1392 80.6783C54.1797 79.7978 55.5565 78.6768 57.0142 77.4905C64.1155 71.7103 70.1482 66.6638 72.0462 63.446C72.9157 61.9723 73.5627 60.5715 74.0242 59.164C74.7192 57.0435 75.0035 54.8908 74.8932 52.5833C74.7062 48.6865 72.915 44.9523 69.8492 42.0675ZM27.601 52.822C27.6315 52.1905 27.7297 51.5533 27.8937 50.9255C27.9067 50.8758 27.9202 50.8263 27.9337 50.7778C28.2927 49.49 28.9167 48.263 29.7882 47.1303C31.8567 44.443 35.0715 42.7068 37.9782 42.7068C41.633 42.7068 44.8852 45.1443 46.1137 46.192C47.6295 47.4848 49.8995 47.4648 51.3942 46.145C52.8487 44.8608 55.8385 42.7065 59.5215 42.7065C64.0962 42.7065 69.6257 47.125 69.8985 52.8215C69.964 54.1875 69.8422 55.4728 69.5275 56.7248H64.762L62.6327 52.019C62.2305 51.1295 61.3472 50.5558 60.3715 50.5495C59.3982 50.5383 58.505 51.1055 58.091 51.9893L54.846 58.9188L53.1727 55.6368C52.7347 54.7773 51.835 54.2433 50.8777 54.2733C49.914 54.2993 49.0507 54.8775 48.66 55.7588L46.4477 60.7483L42.6232 50.1473C42.3162 49.2968 41.574 48.678 40.6817 48.5295C39.79 48.3795 38.887 48.726 38.3212 49.4313L32.0862 57.2053H28.1042C27.9705 56.7495 27.864 56.2945 27.7832 55.8355C27.6107 54.8558 27.5512 53.87 27.601 52.822ZM53.8274 73.6367L53.8577 73.612C58.3032 69.9938 64.814 64.6943 67.1637 61.7255H63.1492C62.1672 61.7255 61.2762 61.1508 60.8715 60.256L60.316 59.0283L57.2052 65.6705C56.8002 66.5353 55.9377 67.0938 54.983 67.11C54.0387 67.13 53.1477 66.5968 52.714 65.7458L51.1027 62.5855L48.4945 68.468C48.0927 69.374 47.195 69.9545 46.2095 69.9545C46.192 69.9545 46.1747 69.9544 46.1572 69.954C46.1449 69.9538 46.1326 69.9534 46.1202 69.953C45.1 69.9165 44.204 69.2633 43.8575 68.3028L39.4325 56.0373L35.236 61.2698C34.7615 61.8613 34.0442 62.2055 33.2857 62.2055H30.7292C33.352 65.2573 39.4267 70.2068 43.6422 73.6413L43.6789 73.6712C45.1265 74.8508 46.4924 75.9638 47.551 76.8608C48.2345 77.439 49.226 77.439 49.909 76.8613C50.9788 75.9558 52.3619 74.8298 53.8274 73.6367Z" fill="#007EF3"/>
<path d="M69.8492 42.0675L70.1919 41.7034L70.1919 41.7034L69.8492 42.0675ZM48.7172 41.8615L48.407 42.2537L48.7216 42.5025L49.0327 42.2494L48.7172 41.8615ZM25.826 44.081L25.4298 43.776L25.4298 43.7761L25.826 44.081ZM23.117 49.4365L23.5985 49.5712L23.5986 49.5708L23.117 49.4365ZM23.056 49.6628L23.5397 49.7892L23.5401 49.7879L23.056 49.6628ZM22.607 52.583V53.083H23.0836L23.1064 52.6069L22.607 52.583ZM22.6067 52.5833L23.1062 52.6072L23.1067 52.5952L23.1067 52.5833L22.6067 52.5833ZM22.8592 56.7038L23.3516 56.617L23.3516 56.617L22.8592 56.7038ZM25.4525 63.444L25.0216 63.6977L25.0216 63.6977L25.4525 63.444ZM40.4842 77.518L40.8004 77.1307L40.8 77.1304L40.4842 77.518ZM40.4862 77.5196L40.17 77.907L40.1703 77.9072L40.4862 77.5196ZM44.3195 80.6763L44.6427 80.2948L44.6426 80.2947L44.3195 80.6763ZM53.1392 80.6783L53.4622 81.06L53.4622 81.06L53.1392 80.6783ZM57.0142 77.4905L57.3298 77.8783L57.3299 77.8783L57.0142 77.4905ZM72.0462 63.446L71.6156 63.192L71.6156 63.192L72.0462 63.446ZM74.0242 59.164L74.4993 59.3198L74.4994 59.3198L74.0242 59.164ZM74.8932 52.5833L75.3927 52.5594L75.3927 52.5593L74.8932 52.5833ZM27.8937 50.9255L27.41 50.7991L27.41 50.7991L27.8937 50.9255ZM27.601 52.822L27.1016 52.7979L27.1015 52.7983L27.601 52.822ZM27.9337 50.7778L27.4521 50.6435L27.452 50.6437L27.9337 50.7778ZM29.7882 47.1303L29.392 46.8253L29.3919 46.8254L29.7882 47.1303ZM46.1137 46.192L46.4382 45.8116L46.4382 45.8116L46.1137 46.192ZM51.3942 46.145L51.7252 46.5198L51.7252 46.5198L51.3942 46.145ZM69.8985 52.8215L69.399 52.8454V52.8455L69.8985 52.8215ZM69.5275 56.7248V57.2248H69.9173L70.0124 56.8467L69.5275 56.7248ZM64.762 56.7248L64.3064 56.9309L64.4394 57.2248H64.762V56.7248ZM62.6327 52.019L62.1771 52.2251L62.1772 52.2252L62.6327 52.019ZM60.3715 50.5495L60.3657 51.0495L60.3683 51.0495L60.3715 50.5495ZM58.091 51.9893L57.6382 51.7772L57.6382 51.7772L58.091 51.9893ZM54.846 58.9188L54.4005 59.1459L54.8651 60.057L55.2988 59.1308L54.846 58.9188ZM53.1727 55.6368L52.7272 55.8638L52.7273 55.8639L53.1727 55.6368ZM50.8777 54.2733L50.8912 54.7731L50.8934 54.773L50.8777 54.2733ZM48.66 55.7588L48.2029 55.5561L48.2029 55.5561L48.66 55.7588ZM46.4477 60.7483L45.9774 60.918L46.4 62.0894L46.9048 60.9509L46.4477 60.7483ZM42.6232 50.1473L43.0936 49.9776L43.0935 49.9775L42.6232 50.1473ZM40.6817 48.5295L40.5988 49.0226L40.5996 49.0227L40.6817 48.5295ZM38.3212 49.4313L37.9312 49.1184L37.9312 49.1185L38.3212 49.4313ZM32.0862 57.2053V57.7053H32.3262L32.4763 57.5181L32.0862 57.2053ZM28.1042 57.2053L27.6245 57.3461L27.7299 57.7053H28.1042V57.2053ZM27.7832 55.8355L28.2757 55.7489L28.2757 55.7488L27.7832 55.8355ZM53.8577 73.612L53.5421 73.2242L53.5421 73.2243L53.8577 73.612ZM53.8274 73.6367L53.5117 73.249L53.5117 73.249L53.8274 73.6367ZM67.1637 61.7255L67.5558 62.0358L68.1971 61.2255H67.1637V61.7255ZM60.8715 60.256L61.327 60.05L61.327 60.0499L60.8715 60.256ZM60.316 59.0283L60.7715 58.8222L60.3238 57.8326L59.8632 58.8162L60.316 59.0283ZM57.2052 65.6705L57.658 65.8826L57.658 65.8826L57.2052 65.6705ZM54.983 67.11L54.9745 66.6101L54.9724 66.6101L54.983 67.11ZM52.714 65.7458L53.1595 65.5187L53.1594 65.5187L52.714 65.7458ZM51.1027 62.5855L51.5482 62.3584L51.0712 61.423L50.6456 62.3829L51.1027 62.5855ZM48.4945 68.468L48.9516 68.6707L48.9516 68.6707L48.4945 68.468ZM46.1572 69.954L46.1473 70.4539L46.1474 70.4539L46.1572 69.954ZM46.1202 69.953L46.1024 70.4527L46.1036 70.4528L46.1202 69.953ZM43.8575 68.3028L44.3278 68.1331L44.3278 68.1331L43.8575 68.3028ZM39.4325 56.0373L39.9028 55.8676L39.6002 55.0289L39.0424 55.7245L39.4325 56.0373ZM35.236 61.2698L35.626 61.5827L35.626 61.5826L35.236 61.2698ZM30.7292 62.2055V61.7055H29.6402L30.35 62.5314L30.7292 62.2055ZM43.6422 73.6413L43.9581 73.2537L43.958 73.2536L43.6422 73.6413ZM43.6789 73.6712L43.9947 73.2836L43.9947 73.2835L43.6789 73.6712ZM47.551 76.8608L47.2277 77.2423L47.228 77.2425L47.551 76.8608ZM49.909 76.8613L50.2319 77.243L50.232 77.2429L49.909 76.8613ZM59.5215 38.207C62.997 38.207 66.6423 39.7366 69.5066 42.4317L70.1919 41.7034C67.1657 38.856 63.2824 37.207 59.5215 37.207V38.207ZM49.0327 42.2494C51.1496 40.5277 54.8711 38.207 59.5215 38.207V37.207C54.5413 37.207 50.5998 39.6859 48.4017 41.4736L49.0327 42.2494ZM37.9782 38.207C42.4515 38.207 46.226 40.5285 48.407 42.2537L49.0274 41.4694C46.7779 39.69 42.7839 37.207 37.9782 37.207V38.207ZM26.2222 44.386C29.166 40.562 33.6825 38.207 37.9782 38.207V37.207C33.335 37.207 28.539 39.7371 25.4298 43.776L26.2222 44.386ZM23.5986 49.5708C24.1131 47.7252 24.9943 45.9812 26.2222 44.386L25.4298 43.7761C24.1272 45.4683 23.1859 47.3273 22.6353 49.3023L23.5986 49.5708ZM23.5401 49.7879C23.5584 49.7171 23.578 49.6446 23.5985 49.5712L22.6354 49.3019C22.6135 49.3805 22.5921 49.4595 22.5719 49.5377L23.5401 49.7879ZM23.1064 52.6069C23.1515 51.6647 23.2973 50.7168 23.5397 49.7892L22.5722 49.5364C22.3126 50.5298 22.156 51.5464 22.1075 52.5591L23.1064 52.6069ZM22.6067 52.5833C23.1067 52.5833 23.1067 52.5835 23.1067 52.5838C23.1067 52.5838 23.1067 52.5841 23.1067 52.5843C23.1067 52.5846 23.1067 52.5849 23.1067 52.5852C23.1067 52.5859 23.1067 52.5866 23.1067 52.5872C23.1067 52.5886 23.1067 52.59 23.1067 52.5913C23.1066 52.5941 23.1065 52.597 23.1064 52.5999C23.1063 52.6058 23.1059 52.6122 23.1055 52.6189C23.1045 52.6322 23.1028 52.6479 23.0999 52.6655C23.0945 52.6982 23.0826 52.7495 23.0539 52.8069C23.0243 52.8662 22.9719 52.9406 22.8841 52.9992C22.7931 53.0598 22.6943 53.083 22.607 53.083V52.083C22.5195 52.083 22.4206 52.1063 22.3296 52.167C22.2417 52.2255 22.1893 52.3001 22.1596 52.3595C22.1309 52.4169 22.119 52.4682 22.1135 52.501C22.1106 52.5186 22.1089 52.5343 22.108 52.5476C22.1075 52.5544 22.1072 52.5607 22.107 52.5666C22.1069 52.5696 22.1068 52.5724 22.1068 52.5752C22.1068 52.5766 22.1068 52.578 22.1067 52.5793C22.1067 52.58 22.1067 52.5807 22.1067 52.5813C22.1067 52.5816 22.1067 52.582 22.1067 52.5823C22.1067 52.5825 22.1067 52.5827 22.1067 52.5828C22.1067 52.583 22.1067 52.5833 22.6067 52.5833ZM23.3516 56.617C23.1203 55.3049 23.0399 53.9943 23.1062 52.6072L22.1073 52.5594C22.0376 54.0177 22.1221 55.4026 22.3668 56.7906L23.3516 56.617ZM25.8834 63.1904C24.5399 60.9079 23.7404 58.8224 23.3516 56.617L22.3668 56.7906C22.7795 59.1317 23.6275 61.3292 25.0216 63.6977L25.8834 63.1904ZM40.8 77.1304C37.2525 74.2402 33.9822 71.5411 31.3611 69.161C28.7273 66.7693 26.7961 64.7407 25.8833 63.1904L25.0216 63.6977C26.0201 65.3936 28.0581 67.5124 30.6889 69.9013C33.3325 72.3018 36.6224 75.0167 40.1684 77.9057L40.8 77.1304ZM40.8024 77.1323L40.8004 77.1307L40.168 77.9054L40.17 77.907L40.8024 77.1323ZM44.6426 80.2947C43.6077 79.4181 42.2419 78.3053 40.802 77.132L40.1703 77.9072C41.613 79.0828 42.9702 80.1887 43.9963 81.0578L44.6426 80.2947ZM48.7305 81.8C47.279 81.8 45.828 81.299 44.6427 80.2948L43.9963 81.0578C45.3664 82.2186 47.0479 82.8 48.7305 82.8V81.8ZM52.8162 80.2966C51.6311 81.2994 50.1805 81.8 48.7305 81.8V82.8C50.4115 82.8 52.0923 82.2191 53.4622 81.06L52.8162 80.2966ZM56.6986 77.1027C55.2421 78.2879 53.8612 79.4123 52.8162 80.2966L53.4622 81.06C54.4982 80.1832 55.8708 79.0656 57.3298 77.8783L56.6986 77.1027ZM71.6156 63.192C70.7096 64.7279 68.7806 66.7488 66.1457 69.1369C63.5237 71.5131 60.25 74.212 56.6986 77.1028L57.3299 77.8783C60.8797 74.9888 64.173 72.2743 66.8172 69.8778C69.4484 67.4931 71.4849 65.3819 72.4769 63.7001L71.6156 63.192ZM73.5491 59.0082C73.1004 60.3767 72.4695 61.7446 71.6156 63.192L72.4769 63.7001C73.3619 62.2 74.025 60.7664 74.4993 59.3198L73.5491 59.0082ZM74.3938 52.6071C74.5012 54.856 74.2245 56.9477 73.5491 59.0083L74.4994 59.3198C75.214 57.1393 75.5057 54.9256 75.3927 52.5594L74.3938 52.6071ZM69.5066 42.4317C72.4862 45.2353 74.2135 48.8507 74.3938 52.6072L75.3927 52.5593C75.1989 48.5223 73.3438 44.6692 70.1919 41.7034L69.5066 42.4317ZM27.41 50.7991C27.2374 51.4596 27.1338 52.1311 27.1016 52.7979L28.1004 52.8462C28.1292 52.25 28.222 51.647 28.3775 51.0519L27.41 50.7991ZM27.452 50.6437C27.4381 50.6938 27.4238 50.746 27.41 50.7991L28.3775 51.0519C28.3896 51.0055 28.4024 50.9587 28.4154 50.9119L27.452 50.6437ZM29.3919 46.8254C28.4841 48.0054 27.8295 49.2897 27.4521 50.6435L28.4154 50.9121C28.7559 49.6903 29.3494 48.5206 30.1845 47.4352L29.3919 46.8254ZM37.9782 42.2068C34.8893 42.2068 31.5374 44.0382 29.392 46.8253L30.1844 47.4353C32.1761 44.8479 35.2537 43.2068 37.9782 43.2068V42.2068ZM46.4382 45.8116C45.1991 44.7549 41.8261 42.2068 37.9782 42.2068V43.2068C41.4398 43.2068 44.5713 45.5337 45.7893 46.5725L46.4382 45.8116ZM51.0633 45.7702C49.7549 46.9254 47.7643 46.9426 46.4382 45.8116L45.7893 46.5725C47.4946 48.0269 50.044 48.0042 51.7252 46.5198L51.0633 45.7702ZM59.5215 42.2065C55.6525 42.2065 52.5457 44.4613 51.0633 45.7702L51.7252 46.5198C53.1517 45.2603 56.0244 43.2065 59.5215 43.2065V42.2065ZM70.3979 52.7976C70.254 49.7913 68.7252 47.1452 66.6605 45.2587C64.6007 43.3767 61.959 42.2065 59.5215 42.2065V43.2065C61.6587 43.2065 64.0692 44.2456 65.986 45.997C67.8979 47.7438 69.2702 50.1552 69.399 52.8454L70.3979 52.7976ZM70.0124 56.8467C70.3398 55.5441 70.4656 54.2096 70.3979 52.7976L69.399 52.8455C69.4623 54.1655 69.3446 55.4014 69.0426 56.6029L70.0124 56.8467ZM64.762 57.2248H69.5275V56.2248H64.762V57.2248ZM62.1772 52.2252L64.3064 56.9309L65.2175 56.5187L63.0883 51.8129L62.1772 52.2252ZM60.3683 51.0495C61.1488 51.0545 61.8554 51.5135 62.1771 52.2251L63.0883 51.813C62.6056 50.7456 61.5457 50.057 60.3747 50.0495L60.3683 51.0495ZM58.5438 52.2014C58.8757 51.4928 59.5911 51.0405 60.3657 51.0495L60.3773 50.0496C59.2053 50.036 58.1343 50.7182 57.6382 51.7772L58.5438 52.2014ZM55.2988 59.1308L58.5438 52.2013L57.6382 51.7772L54.3932 58.7067L55.2988 59.1308ZM52.7273 55.8639L54.4005 59.1459L55.2914 58.6917L53.6182 55.4097L52.7273 55.8639ZM50.8934 54.773C51.6556 54.7491 52.3765 55.1755 52.7272 55.8638L53.6182 55.4098C53.093 54.379 52.0144 53.7374 50.8621 53.7735L50.8934 54.773ZM49.1171 55.9615C49.4296 55.2565 50.1202 54.7939 50.8912 54.7731L50.8642 53.7735C49.7077 53.8047 48.6718 54.4985 48.2029 55.5561L49.1171 55.9615ZM46.9048 60.9509L49.1171 55.9614L48.2029 55.5561L45.9906 60.5456L46.9048 60.9509ZM42.1529 50.317L45.9774 60.918L46.9181 60.5786L43.0936 49.9776L42.1529 50.317ZM40.5996 49.0227C41.3134 49.1415 41.9073 49.6366 42.1529 50.317L43.0935 49.9775C42.7252 48.957 41.8345 48.2145 40.7638 48.0363L40.5996 49.0227ZM38.7112 49.7442C39.1643 49.1794 39.8867 48.9028 40.5988 49.0226L40.7647 48.0365C39.6933 47.8562 38.6097 48.2726 37.9312 49.1184L38.7112 49.7442ZM32.4763 57.5181L38.7113 49.7441L37.9312 49.1185L31.6962 56.8925L32.4763 57.5181ZM28.1042 57.7053H32.0862V56.7053H28.1042V57.7053ZM27.2908 55.9222C27.3748 56.3997 27.4855 56.8727 27.6245 57.3461L28.584 57.0645C28.4554 56.6263 28.3532 56.1894 28.2757 55.7489L27.2908 55.9222ZM27.1015 52.7983C27.0501 53.8812 27.1115 54.9041 27.2908 55.9222L28.2757 55.7488C28.1099 54.8075 28.0523 53.8589 28.1004 52.8457L27.1015 52.7983ZM53.5421 73.2243L53.5117 73.249L54.143 74.0245L54.1734 73.9998L53.5421 73.2243ZM66.7717 61.4152C65.6298 62.858 63.4488 64.8969 60.969 67.0475C58.4988 69.1897 55.7659 71.4143 53.5421 73.2242L54.1734 73.9998C56.3951 72.1915 59.1402 69.9572 61.6242 67.803C64.0986 65.6571 66.3479 63.5619 67.5558 62.0358L66.7717 61.4152ZM63.1492 62.2255H67.1637V61.2255H63.1492V62.2255ZM60.4159 60.4621C60.9016 61.5358 61.9709 62.2255 63.1492 62.2255V61.2255C62.3636 61.2255 61.6508 60.7657 61.327 60.05L60.4159 60.4621ZM59.8604 59.2344L60.4159 60.4621L61.327 60.0499L60.7715 58.8222L59.8604 59.2344ZM57.658 65.8826L60.7688 59.2403L59.8632 58.8162L56.7524 65.4585L57.658 65.8826ZM54.9915 67.61C56.137 67.5905 57.172 66.9204 57.658 65.8826L56.7524 65.4585C56.4285 66.1502 55.7384 66.5971 54.9745 66.6101L54.9915 67.61ZM52.2685 65.9728C52.7888 66.9936 53.8563 67.634 54.9936 67.6099L54.9724 66.6101C54.2212 66.6261 53.5067 66.2 53.1595 65.5187L52.2685 65.9728ZM50.6573 62.8126L52.2685 65.9729L53.1594 65.5187L51.5482 62.3584L50.6573 62.8126ZM48.9516 68.6707L51.5598 62.7882L50.6456 62.3829L48.0374 68.2654L48.9516 68.6707ZM46.2095 70.4545C47.3921 70.4545 48.4694 69.758 48.9516 68.6707L48.0374 68.2653C47.716 68.99 46.9978 69.4545 46.2095 69.4545V70.4545ZM46.1474 70.4539C46.1681 70.4543 46.1887 70.4545 46.2095 70.4545V69.4545C46.1953 69.4545 46.1812 69.4544 46.1671 69.4541L46.1474 70.4539ZM46.1036 70.4528C46.1182 70.4532 46.1328 70.4536 46.1473 70.4539L46.1672 69.4541C46.1571 69.4539 46.147 69.4536 46.1368 69.4533L46.1036 70.4528ZM43.3871 68.4725C43.803 69.6251 44.8781 70.4089 46.1024 70.4527L46.1381 69.4534C45.3218 69.4241 44.605 68.9015 44.3278 68.1331L43.3871 68.4725ZM38.9621 56.207L43.3871 68.4725L44.3278 68.1331L39.9028 55.8676L38.9621 56.207ZM35.626 61.5826L39.8225 56.3501L39.0424 55.7245L34.8459 60.957L35.626 61.5826ZM33.2857 62.7055C34.1959 62.7055 35.0566 62.2924 35.626 61.5827L34.846 60.9569C34.4663 61.4301 33.8925 61.7055 33.2857 61.7055V62.7055ZM30.7292 62.7055H33.2857V61.7055H30.7292V62.7055ZM43.958 73.2536C39.7236 69.8037 33.6946 64.8888 31.1084 61.8796L30.35 62.5314C33.0094 65.6258 39.1299 70.6099 43.3264 74.0289L43.958 73.2536ZM43.9947 73.2835L43.9581 73.2537L43.3264 74.0289L43.363 74.0588L43.9947 73.2835ZM47.8742 76.4793C46.8112 75.5786 45.4411 74.4622 43.9947 73.2836L43.363 74.0588C44.812 75.2395 46.1737 76.3491 47.2277 77.2423L47.8742 76.4793ZM49.5861 76.4795C49.0896 76.8995 48.3711 76.8997 47.8739 76.4791L47.228 77.2425C48.0979 77.9784 49.3624 77.9785 50.2319 77.243L49.5861 76.4795ZM53.5117 73.249C52.0475 74.441 50.6603 75.5704 49.586 76.4796L50.232 77.2429C51.2974 76.3412 52.6762 75.2187 54.143 74.0245L53.5117 73.249Z" fill="#007EF3"/>
<path d="M70.797 89.0585H26.7032C25.3225 89.0585 24.2032 90.178 24.2032 91.5585C24.2032 92.939 25.3225 94.0585 26.7032 94.0585H70.797C72.1777 94.0585 73.297 92.939 73.297 91.5585C73.297 90.178 72.1775 89.0585 70.797 89.0585Z" fill="#007EF3" stroke="#007EF3"/>
<path d="M70.797 99.0585H26.7032C25.3225 99.0585 24.2032 100.178 24.2032 101.558C24.2032 102.939 25.3225 104.058 26.7032 104.058H70.797C72.1777 104.058 73.297 102.939 73.297 101.558C73.297 100.178 72.1775 99.0585 70.797 99.0585Z" fill="#007EF3" stroke="#007EF3"/>
</svg>
