<svg width="232" height="232" viewBox="0 0 232 232" fill="none" xmlns="http://www.w3.org/2000/svg">
<mask id="mask0_0_189" style="mask-type:alpha" maskUnits="userSpaceOnUse" x="0" y="0" width="232" height="232">
<rect width="232" height="232" rx="116" fill="white"/>
</mask>
<g mask="url(#mask0_0_189)">
<path fill-rule="evenodd" clip-rule="evenodd" d="M161.63 217.368C161.63 217.368 172.631 298.612 176.532 307.363C180.432 316.115 218.184 394.771 218.184 394.771L190.9 414.34C190.9 414.34 130.157 322.762 127.404 317.856C125.625 314.716 120.885 296.018 120.885 296.018L74.1051 423.398L43.1049 409.232L75.6506 220.642L161.63 217.368Z" fill="#AADAF1"/>
<path fill-rule="evenodd" clip-rule="evenodd" d="M128.679 218.631L104.32 219.557L104.498 225.432L128.679 218.631ZM104.934 240.886L107.724 331.845L120.878 296.122L104.934 240.886Z" fill="#73A9C3"/>
<path d="M120.909 296.122L102.64 232.442" stroke="#0097F7" stroke-width="1.04254" stroke-linecap="round" stroke-linejoin="round"/>
<path fill-rule="evenodd" clip-rule="evenodd" d="M182.885 159.022C182.805 154.294 183.823 145.868 181.714 140.802C179.604 135.737 165.677 137.92 165.677 137.92C165.677 137.92 182.959 163.726 182.885 159.022Z" fill="#F77F89"/>
<path fill-rule="evenodd" clip-rule="evenodd" d="M125.459 77.5506C157.116 77.5506 182.946 93.5873 183.198 117.891C183.351 133.143 186.16 144.114 186.16 144.114L158.091 151.093C158.091 151.093 167.842 218.042 164.42 220.857C154.24 229.246 82.8196 232.055 73.958 222.924C73.1791 211.628 80.0476 181.529 80.0476 181.529C80.0476 181.529 58.2524 130.15 70.0638 105.92C81.2557 82.9534 110.68 78.8261 123.724 78.3785C124.441 78.3539 124.846 77.5506 125.459 77.5506Z" fill="#FF9F6B"/>
<path fill-rule="evenodd" clip-rule="evenodd" d="M144.219 35.7569C144.403 24.9083 133.322 10 117.364 10C104.86 10 92.0859 15.9486 91.7609 25.6259C91.1109 21.6274 90.4915 19.156 90.9453 16.9482C88.2469 16.8133 82.8196 23.7738 82.8196 33.0708C82.8196 36.6645 85.6222 50.2421 93.5946 50.0765C101.567 49.9109 131.991 60.8024 131.991 60.8024C131.991 60.8024 133.99 63.7277 136.688 63.5069C139.387 63.2861 144.495 58.2267 144.538 55.4364C144.581 52.6461 142.054 47.6296 142.085 46.0781C142.116 44.5265 144.029 46.5871 144.219 35.7569Z" fill="#6A3416"/>
<path d="M106.062 109.127L100.438 129.586" stroke="black" stroke-width="2.09122" stroke-linecap="round" stroke-linejoin="round"/>
<path fill-rule="evenodd" clip-rule="evenodd" d="M90.1664 49.684C90.1639 40.0838 95.9454 31.4275 104.814 27.7525C113.683 24.0775 123.893 26.1076 130.681 32.896C137.47 39.6845 139.5 49.894 135.825 58.763C132.15 67.632 123.494 73.4135 113.893 73.4111C100.789 73.4111 90.1664 62.7881 90.1664 49.684Z" fill="#F77F89"/>
<path fill-rule="evenodd" clip-rule="evenodd" d="M89.0258 40.663C89.0258 40.663 92.2147 40.0497 96.9061 33.1076C102.757 34.2115 112.385 34.1624 120.59 31.6849C120.694 36.6339 124.325 44.735 129.323 43.8397C134.321 42.9443 136.369 30.8999 136.369 30.8999L124.589 18.5856L106.773 18.7022L94.2323 27.5392L89.0258 40.663Z" fill="#6A3416"/>
<path fill-rule="evenodd" clip-rule="evenodd" d="M96.1089 46.863C95.8881 44.9681 96.483 43.3491 97.4335 43.2387C98.3841 43.1283 99.3408 44.5694 99.5615 46.4583C99.7823 48.3471 99.1875 49.9723 98.2308 50.0826C97.2741 50.193 96.3481 48.7519 96.1089 46.863Z" fill="#90415B"/>
<path fill-rule="evenodd" clip-rule="evenodd" d="M137.853 54.6208C137.24 58.3923 136.014 76.3302 137.958 80.1446C133.622 84.5111 120.909 86.3938 114.249 84.4988C114.77 79.3229 112.624 74.2635 111.477 72.1968C110.33 70.1301 138.448 50.8431 137.853 54.6208Z" fill="#F77F89"/>
<path fill-rule="evenodd" clip-rule="evenodd" d="M111.956 43.9501C111.735 42.0612 112.33 40.4422 113.28 40.3257C114.231 40.2092 115.187 41.6565 115.402 43.5514C115.617 45.4464 115.034 47.0654 114.077 47.1758C113.121 47.2862 112.176 45.845 111.956 43.9501Z" fill="#90415B"/>
<path d="M104.057 47.4947C104.247 49.727 102.456 58.1654 102.076 59.4717C101.696 60.7779 103.738 61.2624 103.738 61.2624" stroke="#90415B" stroke-width="1.04254" stroke-linecap="round" stroke-linejoin="round"/>
<path fill-rule="evenodd" clip-rule="evenodd" d="M91.3561 57.1229C91.4788 59.4962 97.084 71.7369 100.389 73.6196C103.695 75.5023 128.599 75.257 134.321 62.9304C129.624 62.2007 126.441 58.2145 122.724 49.684C114.421 50.9106 105.007 49.684 103.493 49.7638C101.831 49.8619 97.8322 55.3812 91.3561 57.1229Z" fill="white"/>
<path fill-rule="evenodd" clip-rule="evenodd" d="M141.073 102.332C154.099 102.081 179.929 100.493 182.523 111.531C185.117 122.57 187.583 141.501 186.16 144.095C184.737 146.689 158.214 149.977 158.214 149.977C156.116 144.666 144.538 114.72 141.073 102.332Z" fill="#FF9F6B"/>
<path fill-rule="evenodd" clip-rule="evenodd" d="M168.872 175.513C161.697 176.678 119.351 147.174 114.102 147.75C108.852 148.327 95.3792 147.812 95.3792 147.812C95.3792 147.812 87.7134 118.43 104.069 117.345C105.081 117.278 111.072 122.607 111.072 122.607C111.072 122.607 112.734 122.079 113.893 123.03C116.009 124.759 122.89 132.578 126.33 133.817C132.12 135.908 179.101 144.794 181.352 148.535C183.603 152.276 186.086 172.722 168.872 175.513Z" fill="#F77F89"/>
<path fill-rule="evenodd" clip-rule="evenodd" d="M56.3635 130.199H89.2036C92.9935 130.199 97.2986 133.008 98.8256 136.479L121.939 188.98C123.466 192.445 121.633 195.253 117.843 195.253H85.0089C81.219 195.253 76.9077 192.445 75.3807 188.98L52.2731 136.473C50.7461 133.001 52.5797 130.199 56.3635 130.199Z" fill="#007EF3"/>
<path fill-rule="evenodd" clip-rule="evenodd" d="M55.5602 172.857C53.9964 168.822 52.8802 163.247 55.0757 159.678C57.2712 156.109 65.7219 145.119 69.2236 144.917C72.7253 144.715 81.7157 154.459 82.6785 157.618C83.6413 160.776 83.2918 167.638 81.7832 170.594C80.2745 173.55 74.2217 179.29 71.1738 179.407C68.1259 179.523 56.4862 175.323 55.5602 172.857Z" fill="#F77F89"/>
<path fill-rule="evenodd" clip-rule="evenodd" d="M54.6955 164.793C54.2723 158.28 51.433 151.228 49.5073 146.444C48.2195 143.261 49.17 140.532 51.3471 139.913C53.5242 139.294 60.2762 148.198 60.4724 155.085C60.6686 161.972 55.1248 171.287 54.6955 164.793Z" fill="#F77F89"/>
<path d="M54.2907 161.475C55.8518 158.027 57.9347 154.839 60.4662 152.025" stroke="#81666F" stroke-width="1.04254" stroke-linecap="round" stroke-linejoin="round"/>
<path d="M62.999 162.53C62.999 159.028 70.1374 148.817 72.8112 147.566" stroke="#905F6F" stroke-width="1.04254" stroke-linecap="round" stroke-linejoin="round"/>
<path d="M70.0085 166.651C70.0883 164.952 75.6444 155.698 78.8272 153.858" stroke="#8B5D6C" stroke-width="1.04254" stroke-linecap="round" stroke-linejoin="round"/>
<path d="M83.0587 112.329C82.4454 115.922 81.869 123.606 83.3531 130.18" stroke="white" stroke-width="1.04254" stroke-linecap="round" stroke-linejoin="round"/>
<path d="M124.368 127.255L145.065 127.672" stroke="white" stroke-width="1.04254" stroke-linecap="round" stroke-linejoin="round"/>
<path fill-rule="evenodd" clip-rule="evenodd" d="M112.71 79.4333C112.409 82.4628 108.816 102.05 120.909 102.05C128.691 102.05 140.773 83.9468 138.859 78.5502" fill="#F77F89"/>
<path d="M112.71 79.4333C112.409 82.4628 108.816 102.05 120.909 102.05C128.691 102.05 140.773 83.9468 138.859 78.5502" stroke="white" stroke-width="1.04254" stroke-linecap="round" stroke-linejoin="round"/>
<path fill-rule="evenodd" clip-rule="evenodd" d="M126.33 47.0102C126.328 43.3535 128.529 40.0555 131.906 38.6545C135.284 37.2534 139.173 38.0253 141.759 40.6101C144.346 43.1948 145.12 47.0833 143.722 50.4619C142.323 53.8405 139.026 56.0435 135.37 56.0435C130.38 56.0435 126.334 52.0002 126.33 47.0102Z" fill="#F77F89"/>
<path d="M122.816 49.8619C122.816 49.8619 128.526 39.4365 134.573 38.0076" stroke="white" stroke-width="1.04254" stroke-linecap="round" stroke-linejoin="round"/>
<path d="M134.284 63.004L138.712 55.3812" stroke="white" stroke-width="1.04254" stroke-linecap="round" stroke-linejoin="round"/>
<path d="M154.608 140.698C151.143 131.616 146.169 118.283 143.029 108.729" stroke="white" stroke-width="1.04254" stroke-linecap="round" stroke-linejoin="round"/>
<path d="M92.0552 59.6311C93.6742 64.0527 97.7647 72.1232 100.396 73.6196C101.444 74.2328 104.688 74.6008 108.822 74.4475" stroke="#C9C9C9" stroke-width="2.09122" stroke-linecap="round" stroke-linejoin="round"/>
</g>
</svg>
