<svg width="51" height="51" viewBox="0 0 51 51" fill="none" xmlns="http://www.w3.org/2000/svg">
<circle cx="25.5" cy="25.5" r="25.5" fill="#F7FBFF"/>
<g style="mix-blend-mode:luminosity">
<path d="M35 19.7314C34.3306 20.025 33.6174 20.2196 32.8737 20.3141C33.6388 19.8574 34.2226 19.1396 34.4971 18.2745C33.7839 18.6998 32.9964 19.0001 32.1571 19.1678C31.4799 18.4466 30.5146 18 29.4616 18C27.4186 18 25.7739 19.6582 25.7739 21.6911C25.7739 21.9836 25.7986 22.2649 25.8594 22.5326C22.7915 22.383 20.0769 20.9126 18.2533 18.6727C17.9349 19.2251 17.7481 19.8574 17.7481 20.538C17.7481 21.816 18.4062 22.9489 19.3872 23.6048C18.7944 23.5935 18.2127 23.4214 17.72 23.1502C17.72 23.1615 17.72 23.1761 17.72 23.1908C17.72 24.984 18.9991 26.4735 20.6765 26.8166C20.3761 26.8987 20.0488 26.9381 19.709 26.9381C19.4728 26.9381 19.2343 26.9246 19.0104 26.8751C19.4885 28.3365 20.8452 29.4109 22.4585 29.4458C21.203 30.4279 19.6089 31.0196 17.8831 31.0196C17.5805 31.0196 17.2903 31.0061 17 30.969C18.6346 32.0231 20.5719 32.625 22.661 32.625C29.4515 32.625 33.164 27 33.164 22.1242C33.164 21.9611 33.1584 21.8036 33.1505 21.6472C33.8829 21.1275 34.4982 20.4784 35 19.7314Z" fill="#03A9F4"/>
</g>
</svg>
